<svg id="Layer_1" data-name="Layer 1" xmlns="http://www.w3.org/2000/svg" viewBox="0 0 244 39.29"><defs><style>.cls-1{fill:#65c3ea;}</style></defs><title>divadis_final_3</title><path class="cls-1" d="M28.06,81.92V119q-2.5,0-7.84.42v-.63A5.64,5.64,0,0,0,24,115.59q1.09-2.32,1.09-9.63V91.44q0-4.46-1.09-6.5a6,6,0,0,0-3.83-2.81v-.63Q24.79,81.84,28.06,81.92ZM32.7,119H30.55V81.92q4.85-.11,6.79-.25,2.92-.18,4-.18a16.14,16.14,0,0,1,9,2.43,15.53,15.53,0,0,1,5.55,6.43,23.42,23.42,0,0,1,1.83,9.91q0,9.14-4.39,14.13t-12,5q-3.52,0-7.95-.39A4.43,4.43,0,0,0,32.7,119ZM34,85.18q-.56,1.58-.56,11.07v8.58q0,7.7,1,11.25a20.79,20.79,0,0,0,6.19.84q6.5,0,10.23-4.11t3.76-12.2q0-7.87-3.73-12.23T40,84A12.74,12.74,0,0,0,34,85.18Zm20.46,31q5.84-4.46,5.84-15.47,0-10.76-4.78-15.19a17.75,17.75,0,0,1,6,6.43,18,18,0,0,1,2,8.65Q63.63,110.78,54.49,116.23Z" transform="translate(-20.22 -80.45)"/><path class="cls-1" d="M144.29,118.76v.63q4.79-.34,8.19-.42L134.73,81.91c-.61,0-1.93-.07-3.94-.21s-3.43-.21-4.54-.21h-1.13v.64h0a3.53,3.53,0,0,1,2.72,3.64,14.09,14.09,0,0,1-1.72,5.38L118,108.35l-8.76-16.56q-2.59-5-2.6-7.13a2.44,2.44,0,0,1,2-2.53v-.64q-4.43.42-7.63.42l17,32.52,11-23a38.78,38.78,0,0,1,3.39-6.12,10.45,10.45,0,0,1,1.78,2.61l-11.67,22.71a20.83,20.83,0,0,1-5.44,7.12L98.16,81.91l-6.61-.42v.64q4,.94,7.56,7.69l15.66,29.62.69-.05c.33,0,1-.06,2-.17a33.43,33.43,0,0,1,3.73-.25,30.93,30.93,0,0,1,3.73.25c1,.11,1.67.17,2.07.17v-.63q-3-1.12-3-3.8a6.57,6.57,0,0,1,.74-3c.33-.66.5-1,.52-1l.18-.46,3.34-6.54h13.25l3.13,6.54a14.27,14.27,0,0,1,1.76,5.42Q147,118.3,144.29,118.76Zm-14.1-17.47,5.52-10.69,5.1,10.69Z" transform="translate(-20.22 -80.45)"/><path class="cls-1" d="M153.11,107.93l-8.26-17.12a3.92,3.92,0,0,0-.32-.74c-.11-.37-.64-1.56-1.58-3.55s-1.5-3.39-2-4.61h-3.44L155.29,119c1.5,0,3.85.14,7,.42v-.63Q157.45,116.86,153.11,107.93Zm-28-25.8v-.64H125v.64h.1Z" transform="translate(-20.22 -80.45)"/><path class="cls-1" d="M171.12,81.92V119q-2.5,0-7.84.42v-.63a5.64,5.64,0,0,0,3.83-3.16q1.09-2.32,1.09-9.63V91.44q0-4.46-1.09-6.5a6,6,0,0,0-3.83-2.81v-.63Q167.85,81.84,171.12,81.92ZM175.76,119h-2.14V81.92q4.85-.11,6.79-.25,2.92-.18,4-.18a16.14,16.14,0,0,1,9,2.43A15.53,15.53,0,0,1,199,90.35a23.42,23.42,0,0,1,1.83,9.91q0,9.14-4.39,14.13t-12,5q-3.52,0-7.95-.39A4.43,4.43,0,0,0,175.76,119Zm1.34-33.79q-.56,1.58-.56,11.07v8.58q0,7.7,1,11.25a20.79,20.79,0,0,0,6.19.84q6.5,0,10.23-4.11t3.76-12.2q0-7.87-3.73-12.23T183,84A12.74,12.74,0,0,0,177.09,85.18Zm20.46,31q5.84-4.46,5.84-15.47,0-10.76-4.78-15.19a17.75,17.75,0,0,1,6,6.43,18,18,0,0,1,2,8.65Q206.7,110.78,197.56,116.23Z" transform="translate(-20.22 -80.45)"/><path class="cls-1" d="M220,95.62v23.5q-1.86,0-5.66.27V119a3.85,3.85,0,0,0,2.76-1.94,12.64,12.64,0,0,0,.78-5.33v-10a8.69,8.69,0,0,0-.8-4.26,3.92,3.92,0,0,0-2.74-1.74v-.4Q217.51,95.58,220,95.62Zm1.94,23.5V95.62a53.58,53.58,0,0,0,5.68-.27v.4a4.08,4.08,0,0,0-2.53,1.43q-1,1.23-1,5.06v10.64q0,3.43,1.09,4.62a4.74,4.74,0,0,0,2.48,1.49v.4a52.66,52.66,0,0,0-5.68-.27Z" transform="translate(-20.22 -80.45)"/><path class="cls-1" d="M237.35,106.77h.81a10.15,10.15,0,0,0,3.62,7.42,11.21,11.21,0,0,0,7.59,2.88,7.74,7.74,0,0,0,5.38-1.86,5.8,5.8,0,0,0,2.07-4.46,5,5,0,0,0-2-4.25q-1.93-1.48-7.63-3.34a51.65,51.65,0,0,1-6.5-2.5,9,9,0,0,1-3.52-3.13,7.79,7.79,0,0,1-1.37-4.5,9.43,9.43,0,0,1,1.86-5.45,8.3,8.3,0,0,0-.42,2.39,8.87,8.87,0,0,0,1.3,4.82,9.07,9.07,0,0,0,3.3,3.23,36.29,36.29,0,0,0,6.57,2.57q6,1.83,8.68,4a7.13,7.13,0,0,1,2.57,5.77,9.24,9.24,0,0,1-2.67,6.43q-2.71,2.92-8.09,2.92a31.59,31.59,0,0,1-6-.81,30.47,30.47,0,0,0-5.06-.74l-.25-.28q0-.6,0-1.55,0-1.12-.21-3.48t-.18-3.52A20.69,20.69,0,0,1,237.35,106.77Zm24.82-14.7h-.74a6.68,6.68,0,0,0-3.23-6,14.18,14.18,0,0,0-7.59-1.93,10.38,10.38,0,0,0-5.84,1.51,4.32,4.32,0,0,0-2.32,3.62,4.13,4.13,0,0,0,1.83,3.55,31.44,31.44,0,0,0,7.49,3.34A54.3,54.3,0,0,1,259,99a10.37,10.37,0,0,1,3.69,3.52,9.66,9.66,0,0,1,1.48,5.24,8.22,8.22,0,0,1-3.23,6.89,7.81,7.81,0,0,0,1.2-4.64,9.56,9.56,0,0,0-1.3-5,11,11,0,0,0-3.37-3.52,30,30,0,0,0-6.64-2.85q-6.93-2.29-9-3.9a6.12,6.12,0,0,1-2.11-5.13,7.29,7.29,0,0,1,3.23-6.29q3.23-2.21,9.18-2.21A43.44,43.44,0,0,1,262,82.55v.25l.07,1.34q0,1.05.07,2.53.11,1.79.11,3.16Q262.24,90.74,262.17,92.08Z" transform="translate(-20.22 -80.45)"/><path class="cls-1" d="M213.39,81.82a5.64,5.64,0,0,0-.1,8.81q-4-1.38-4-4.41T213.39,81.82ZM230,86.25a4.84,4.84,0,0,1-1.1,3.22,6.31,6.31,0,0,1-3,1.92,14.5,14.5,0,0,1-4.5.63A11.09,11.09,0,0,1,215,90.48a5.17,5.17,0,0,1,0-8.55,11.41,11.41,0,0,1,6.26-1.48,11.85,11.85,0,0,1,6.37,1.48A4.79,4.79,0,0,1,230,86.25Zm-2.68.09q0-4.65-6-4.65t-5.86,4.77q0,4.48,5.93,4.48T227.28,86.34Zm2,4.35a5.3,5.3,0,0,0,2.14-4.62,4.92,4.92,0,0,0-2.12-4.24q4.05,1.27,4.05,4.36T229.25,90.69Z" transform="translate(-20.22 -80.45)"/><path class="cls-1" d="M78.05,95.67v23.5q-1.86,0-5.66.27V119a3.85,3.85,0,0,0,2.76-1.94,12.64,12.64,0,0,0,.78-5.33v-10a8.69,8.69,0,0,0-.8-4.26,3.92,3.92,0,0,0-2.74-1.74v-.4Q75.55,95.62,78.05,95.67ZM80,119.17V95.67a53.58,53.58,0,0,0,5.68-.27v.4a4.08,4.08,0,0,0-2.53,1.43q-1,1.23-1,5.06v10.64q0,3.43,1.09,4.62A4.74,4.74,0,0,0,85.67,119v.4a52.66,52.66,0,0,0-5.68-.27Z" transform="translate(-20.22 -80.45)"/><path class="cls-1" d="M71.43,81.86a5.64,5.64,0,0,0-.1,8.81q-4-1.38-4-4.41T71.43,81.86ZM88,86.29a4.84,4.84,0,0,1-1.1,3.22,6.31,6.31,0,0,1-3,1.92,14.5,14.5,0,0,1-4.5.63A11.09,11.09,0,0,1,73,90.53,5.17,5.17,0,0,1,73,82,11.41,11.41,0,0,1,79.3,80.5,11.85,11.85,0,0,1,85.67,82,4.79,4.79,0,0,1,88,86.29Zm-2.68.09q0-4.65-6-4.65T73.48,86.5q0,4.48,5.93,4.48T85.31,86.38Zm2,4.35a5.3,5.3,0,0,0,2.14-4.62,4.92,4.92,0,0,0-2.12-4.24q4.05,1.27,4.05,4.36T87.28,90.73Z" transform="translate(-20.22 -80.45)"/></svg>